<?xml version="1.0" standalone="no"?>
<!DOCTYPE svg PUBLIC "-//W3C//DTD SVG 20010904//EN"
 "http://www.w3.org/TR/2001/REC-SVG-20010904/DTD/svg10.dtd">
<svg version="1.0" xmlns="http://www.w3.org/2000/svg"
 width="1280.000000pt" height="1280.000000pt" viewBox="0 0 1280.000000 1280.000000"
 preserveAspectRatio="xMidYMid meet">
<metadata>
Created by potrace 1.15, written by Peter Selinger 2001-2017
</metadata>
<g transform="translate(0.000000,1280.000000) scale(0.100000,-0.100000)"
fill="#000000" stroke="none">
<path d="M6140 11599 c-1638 -70 -3147 -914 -4082 -2284 -250 -366 -487 -843
-627 -1265 -436 -1306 -341 -2726 264 -3955 623 -1266 1724 -2222 3060 -2660
405 -133 829 -214 1280 -246 211 -15 674 -6 875 16 1066 116 2018 522 2835
1209 166 140 480 455 615 616 488 585 829 1227 1030 1935 251 887 263 1824 36
2719 -168 659 -473 1294 -882 1835 -168 223 -257 325 -483 552 -282 282 -498
460 -806 666 -689 459 -1484 746 -2315 838 -127 14 -550 37 -605 33 -11 0 -99
-4 -195 -9z m210 -869 l0 -680 40 0 40 0 0 680 0 680 63 0 c34 0 127 -5 207
-10 660 -45 1268 -205 1848 -485 94 -46 172 -86 172 -89 0 -2 -67 -130 -149
-283 -83 -153 -152 -285 -156 -294 -4 -10 5 -20 31 -32 20 -10 37 -17 39 -15
1 2 71 132 156 291 84 158 158 287 164 287 14 0 243 -138 365 -220 532 -357
1015 -840 1369 -1369 89 -133 194 -302 189 -306 -2 -1 -61 -35 -133 -75 -431
-241 -445 -250 -436 -268 34 -61 12 -68 325 108 158 89 289 160 292 158 12
-13 181 -363 225 -468 233 -557 365 -1149 386 -1727 l6 -183 -679 0 -680 0 4
-40 4 -40 676 0 675 0 -6 -177 c-20 -554 -138 -1107 -348 -1635 -50 -128 -84
-204 -94 -216 -2 -2 -134 57 -295 132 -160 75 -295 136 -300 136 -14 0 -43
-61 -33 -71 7 -7 373 -180 541 -255 l53 -24 -71 -140 c-334 -659 -837 -1255
-1444 -1715 -138 -105 -264 -191 -270 -184 -2 2 -83 129 -180 281 l-177 277
-35 -22 c-18 -12 -32 -26 -30 -32 2 -5 83 -133 179 -283 l176 -272 -41 -26
c-585 -370 -1318 -627 -2032 -714 -180 -22 -531 -44 -546 -35 -6 4 -10 251
-10 681 l0 674 -40 0 -40 0 0 -680 0 -680 -37 0 c-104 1 -406 23 -549 40 -572
70 -1140 241 -1647 497 l-68 34 65 122 c36 67 107 201 159 297 l95 175 -30 18
c-17 10 -36 16 -42 14 -6 -3 -80 -133 -165 -291 -84 -157 -157 -286 -163 -286
-12 0 -151 80 -283 164 -509 323 -964 744 -1329 1231 -124 165 -316 458 -316
482 0 6 130 84 290 174 159 89 290 165 290 168 0 3 -9 21 -20 39 l-21 33 -32
-19 c-17 -11 -149 -86 -292 -166 -206 -116 -262 -143 -272 -133 -22 22 -180
349 -248 512 -228 548 -374 1235 -375 1758 l0 117 675 0 675 0 0 40 0 40 -675
0 -675 0 0 118 c1 457 119 1075 299 1567 43 114 137 344 145 352 1 1 137 -60
301 -137 164 -77 302 -140 305 -140 7 0 43 71 38 74 -2 1 -118 55 -258 121
-140 65 -277 129 -303 142 l-48 24 77 147 c339 648 812 1216 1379 1657 115 89
345 250 349 244 1 -2 82 -129 180 -281 98 -153 180 -278 182 -278 14 0 64 32
64 41 0 5 -77 130 -172 277 -94 147 -173 274 -175 282 -8 34 504 300 804 418
561 220 1147 340 1721 350 l102 2 0 -680z"/>
<path d="M8890 8909 c-230 -153 -449 -265 -633 -324 -79 -25 -96 -34 -84 -43
27 -23 97 -41 183 -48 l86 -7 -993 -993 -994 -994 -47 0 c-56 0 -101 -32 -118
-85 -25 -75 34 -155 113 -155 42 0 107 30 107 50 0 7 337 10 1021 10 l1021 0
-57 -62 c-32 -34 -68 -85 -81 -113 -24 -50 -30 -80 -16 -73 4 2 54 26 112 54
174 85 417 162 720 226 l65 14 -60 13 c-308 64 -550 138 -715 219 -63 31 -118
58 -122 60 -5 2 -8 -4 -8 -14 0 -33 40 -101 96 -162 l56 -62 -1014 0 -1013 0
1000 1000 1000 1000 6 -88 c6 -82 40 -192 58 -192 4 0 20 39 35 88 61 186 162
388 316 629 43 68 76 123 72 122 -4 0 -54 -32 -112 -70z"/>
</g>
</svg>
